<svg width="34" height="37" viewBox="0 0 34 37" fill="none" xmlns="http://www.w3.org/2000/svg">
<g filter="url(#filter0_d_3_87)">
<path d="M14.7667 5.756C15.3347 3.41467 18.6653 3.41467 19.2333 5.756C19.3186 6.10773 19.4856 6.43437 19.7209 6.70933C19.9563 6.98429 20.2532 7.19981 20.5875 7.33833C20.9219 7.47685 21.2842 7.53447 21.645 7.50649C22.0059 7.47852 22.355 7.36574 22.664 7.17733C24.7213 5.924 27.0773 8.27867 25.824 10.3373C25.6359 10.6462 25.5233 10.9951 25.4954 11.3557C25.4674 11.7163 25.525 12.0784 25.6634 12.4125C25.8017 12.7467 26.017 13.0434 26.2916 13.2787C26.5663 13.514 26.8926 13.6812 27.244 13.7667C29.5853 14.3347 29.5853 17.6653 27.244 18.2333C26.8923 18.3186 26.5656 18.4856 26.2907 18.7209C26.0157 18.9563 25.8002 19.2532 25.6617 19.5875C25.5232 19.9219 25.4655 20.2842 25.4935 20.645C25.5215 21.0059 25.6343 21.355 25.8227 21.664C27.076 23.7213 24.7213 26.0773 22.6627 24.824C22.3538 24.6359 22.0049 24.5233 21.6443 24.4954C21.2837 24.4674 20.9216 24.525 20.5875 24.6634C20.2533 24.8017 19.9566 25.017 19.7213 25.2916C19.486 25.5663 19.3188 25.8926 19.2333 26.244C18.6653 28.5853 15.3347 28.5853 14.7667 26.244C14.6814 25.8923 14.5144 25.5656 14.2791 25.2907C14.0437 25.0157 13.7468 24.8002 13.4125 24.6617C13.0781 24.5232 12.7158 24.4655 12.355 24.4935C11.9941 24.5215 11.645 24.6343 11.336 24.8227C9.27867 26.076 6.92267 23.7213 8.176 21.6627C8.36414 21.3538 8.47673 21.0049 8.50465 20.6443C8.53256 20.2837 8.47499 19.9216 8.33663 19.5875C8.19827 19.2533 7.98301 18.9566 7.70836 18.7213C7.43371 18.486 7.10742 18.3188 6.756 18.2333C4.41467 17.6653 4.41467 14.3347 6.756 13.7667C7.10773 13.6814 7.43437 13.5144 7.70933 13.2791C7.98429 13.0437 8.19981 12.7468 8.33833 12.4125C8.47685 12.0781 8.53447 11.7158 8.50649 11.355C8.47852 10.9941 8.36574 10.645 8.17733 10.336C6.924 8.27867 9.27867 5.92267 11.3373 7.176C12.6707 7.98667 14.3987 7.26933 14.7667 5.756Z" stroke="#7F88A9" stroke-width="2" stroke-linecap="round" stroke-linejoin="round"/>
<path d="M17 20C19.2091 20 21 18.2091 21 16C21 13.7909 19.2091 12 17 12C14.7909 12 13 13.7909 13 16C13 18.2091 14.7909 20 17 20Z" stroke="#7F88A9" stroke-width="2" stroke-linecap="round" stroke-linejoin="round"/>
</g>
<defs>
<filter id="filter0_d_3_87" x="-3" y="0" width="40" height="40" filterUnits="userSpaceOnUse" color-interpolation-filters="sRGB">
<feFlood flood-opacity="0" result="BackgroundImageFix"/>
<feColorMatrix in="SourceAlpha" type="matrix" values="0 0 0 0 0 0 0 0 0 0 0 0 0 0 0 0 0 0 127 0" result="hardAlpha"/>
<feOffset dy="4"/>
<feGaussianBlur stdDeviation="2"/>
<feComposite in2="hardAlpha" operator="out"/>
<feColorMatrix type="matrix" values="0 0 0 0 0 0 0 0 0 0 0 0 0 0 0 0 0 0 0.25 0"/>
<feBlend mode="normal" in2="BackgroundImageFix" result="effect1_dropShadow_3_87"/>
<feBlend mode="normal" in="SourceGraphic" in2="effect1_dropShadow_3_87" result="shape"/>
</filter>
</defs>
</svg>
